<mxfile host="app.diagrams.net" agent="Mozilla/5.0 (Windows NT 10.0; Win64; x64) AppleWebKit/537.36 (KHTML, like Gecko) Chrome/128.0.0.0 Safari/537.36" version="24.7.16">
  <diagram id="0GuKnrWWtf33HkCFgamr" name="Page-1">
    <mxGraphModel dx="1035" dy="511" grid="1" gridSize="10" guides="1" tooltips="1" connect="1" arrows="1" fold="1" page="1" pageScale="1" pageWidth="850" pageHeight="1100" math="0" shadow="0">
      <root>
        <mxCell id="0" />
        <mxCell id="1" parent="0" />
        <mxCell id="3wRMklOLgalW1IvE9kGH-1" value="&lt;b&gt;&lt;font style=&quot;font-size: 16px;&quot;&gt;USER&lt;/font&gt;&lt;/b&gt;" style="rounded=0;whiteSpace=wrap;html=1;" vertex="1" parent="1">
          <mxGeometry x="150" y="165" width="110" height="40" as="geometry" />
        </mxCell>
        <mxCell id="3wRMklOLgalW1IvE9kGH-2" value="&lt;span style=&quot;font-size: 16px;&quot;&gt;&lt;b&gt;&amp;nbsp;CONTACT&lt;/b&gt;&lt;/span&gt;" style="rounded=0;whiteSpace=wrap;html=1;" vertex="1" parent="1">
          <mxGeometry x="580" y="176" width="100" height="39" as="geometry" />
        </mxCell>
        <mxCell id="3wRMklOLgalW1IvE9kGH-4" value="&lt;u&gt;Id&lt;/u&gt;" style="ellipse;whiteSpace=wrap;html=1;" vertex="1" parent="1">
          <mxGeometry x="70" y="45" width="60" height="40" as="geometry" />
        </mxCell>
        <mxCell id="3wRMklOLgalW1IvE9kGH-5" value="Name" style="ellipse;whiteSpace=wrap;html=1;" vertex="1" parent="1">
          <mxGeometry x="140" y="15" width="60" height="40" as="geometry" />
        </mxCell>
        <mxCell id="3wRMklOLgalW1IvE9kGH-6" value="Email" style="ellipse;whiteSpace=wrap;html=1;" vertex="1" parent="1">
          <mxGeometry x="219" y="15" width="60" height="40" as="geometry" />
        </mxCell>
        <mxCell id="3wRMklOLgalW1IvE9kGH-7" value="Password" style="ellipse;whiteSpace=wrap;html=1;" vertex="1" parent="1">
          <mxGeometry x="280" y="45" width="70" height="40" as="geometry" />
        </mxCell>
        <mxCell id="3wRMklOLgalW1IvE9kGH-8" value="Image" style="ellipse;whiteSpace=wrap;html=1;" vertex="1" parent="1">
          <mxGeometry x="300" y="103" width="70" height="40" as="geometry" />
        </mxCell>
        <mxCell id="3wRMklOLgalW1IvE9kGH-9" value="User_Type" style="ellipse;whiteSpace=wrap;html=1;" vertex="1" parent="1">
          <mxGeometry x="40" y="103" width="70" height="40" as="geometry" />
        </mxCell>
        <mxCell id="3wRMklOLgalW1IvE9kGH-10" value="Details" style="ellipse;whiteSpace=wrap;html=1;" vertex="1" parent="1">
          <mxGeometry x="320" y="156" width="70" height="50" as="geometry" />
        </mxCell>
        <mxCell id="3wRMklOLgalW1IvE9kGH-11" value="Enabled" style="ellipse;whiteSpace=wrap;html=1;" vertex="1" parent="1">
          <mxGeometry x="20" y="161" width="70" height="40" as="geometry" />
        </mxCell>
        <mxCell id="3wRMklOLgalW1IvE9kGH-15" value="" style="endArrow=none;html=1;rounded=0;entryX=0.5;entryY=1;entryDx=0;entryDy=0;exitX=0.5;exitY=0;exitDx=0;exitDy=0;" edge="1" parent="1" source="3wRMklOLgalW1IvE9kGH-1" target="3wRMklOLgalW1IvE9kGH-5">
          <mxGeometry width="50" height="50" relative="1" as="geometry">
            <mxPoint x="380" y="255" as="sourcePoint" />
            <mxPoint x="430" y="205" as="targetPoint" />
          </mxGeometry>
        </mxCell>
        <mxCell id="3wRMklOLgalW1IvE9kGH-16" value="" style="endArrow=none;html=1;rounded=0;entryX=0.5;entryY=1;entryDx=0;entryDy=0;exitX=0.555;exitY=-0.02;exitDx=0;exitDy=0;exitPerimeter=0;" edge="1" parent="1" source="3wRMklOLgalW1IvE9kGH-1" target="3wRMklOLgalW1IvE9kGH-6">
          <mxGeometry width="50" height="50" relative="1" as="geometry">
            <mxPoint x="190" y="155" as="sourcePoint" />
            <mxPoint x="175" y="65" as="targetPoint" />
          </mxGeometry>
        </mxCell>
        <mxCell id="3wRMklOLgalW1IvE9kGH-17" value="" style="endArrow=none;html=1;rounded=0;exitX=0.636;exitY=0;exitDx=0;exitDy=0;exitPerimeter=0;" edge="1" parent="1" source="3wRMklOLgalW1IvE9kGH-1" target="3wRMklOLgalW1IvE9kGH-7">
          <mxGeometry width="50" height="50" relative="1" as="geometry">
            <mxPoint x="198" y="175" as="sourcePoint" />
            <mxPoint x="250" y="65" as="targetPoint" />
          </mxGeometry>
        </mxCell>
        <mxCell id="3wRMklOLgalW1IvE9kGH-18" value="" style="endArrow=none;html=1;rounded=0;exitX=0.866;exitY=-0.032;exitDx=0;exitDy=0;entryX=0;entryY=0.5;entryDx=0;entryDy=0;exitPerimeter=0;" edge="1" parent="1" source="3wRMklOLgalW1IvE9kGH-1" target="3wRMklOLgalW1IvE9kGH-8">
          <mxGeometry width="50" height="50" relative="1" as="geometry">
            <mxPoint x="215" y="175" as="sourcePoint" />
            <mxPoint x="315" y="91" as="targetPoint" />
          </mxGeometry>
        </mxCell>
        <mxCell id="3wRMklOLgalW1IvE9kGH-19" value="" style="endArrow=none;html=1;rounded=0;exitX=1;exitY=0.5;exitDx=0;exitDy=0;entryX=0;entryY=0.5;entryDx=0;entryDy=0;" edge="1" parent="1" source="3wRMklOLgalW1IvE9kGH-1" target="3wRMklOLgalW1IvE9kGH-10">
          <mxGeometry width="50" height="50" relative="1" as="geometry">
            <mxPoint x="243" y="175" as="sourcePoint" />
            <mxPoint x="330" y="135" as="targetPoint" />
          </mxGeometry>
        </mxCell>
        <mxCell id="3wRMklOLgalW1IvE9kGH-20" value="" style="endArrow=none;html=1;rounded=0;exitX=1;exitY=0.5;exitDx=0;exitDy=0;" edge="1" parent="1" source="3wRMklOLgalW1IvE9kGH-11">
          <mxGeometry width="50" height="50" relative="1" as="geometry">
            <mxPoint x="270" y="195" as="sourcePoint" />
            <mxPoint x="150" y="185" as="targetPoint" />
          </mxGeometry>
        </mxCell>
        <mxCell id="3wRMklOLgalW1IvE9kGH-21" value="" style="endArrow=none;html=1;rounded=0;exitX=1;exitY=0.5;exitDx=0;exitDy=0;" edge="1" parent="1" source="3wRMklOLgalW1IvE9kGH-9">
          <mxGeometry width="50" height="50" relative="1" as="geometry">
            <mxPoint x="70" y="195" as="sourcePoint" />
            <mxPoint x="150" y="164" as="targetPoint" />
          </mxGeometry>
        </mxCell>
        <mxCell id="3wRMklOLgalW1IvE9kGH-22" value="" style="endArrow=none;html=1;rounded=0;exitX=1;exitY=1;exitDx=0;exitDy=0;entryX=0.334;entryY=0;entryDx=0;entryDy=0;entryPerimeter=0;" edge="1" parent="1" source="3wRMklOLgalW1IvE9kGH-4" target="3wRMklOLgalW1IvE9kGH-1">
          <mxGeometry width="50" height="50" relative="1" as="geometry">
            <mxPoint x="90" y="145" as="sourcePoint" />
            <mxPoint x="171" y="165" as="targetPoint" />
          </mxGeometry>
        </mxCell>
        <mxCell id="3wRMklOLgalW1IvE9kGH-23" value="&lt;u&gt;cid&lt;/u&gt;" style="ellipse;whiteSpace=wrap;html=1;" vertex="1" parent="1">
          <mxGeometry x="630" y="26" width="60" height="39" as="geometry" />
        </mxCell>
        <mxCell id="3wRMklOLgalW1IvE9kGH-24" value="Name" style="ellipse;whiteSpace=wrap;html=1;" vertex="1" parent="1">
          <mxGeometry x="690" y="66" width="60" height="39" as="geometry" />
        </mxCell>
        <mxCell id="3wRMklOLgalW1IvE9kGH-25" value="nickName" style="ellipse;whiteSpace=wrap;html=1;" vertex="1" parent="1">
          <mxGeometry x="720" y="116" width="60" height="39" as="geometry" />
        </mxCell>
        <mxCell id="3wRMklOLgalW1IvE9kGH-26" value="Work" style="ellipse;whiteSpace=wrap;html=1;" vertex="1" parent="1">
          <mxGeometry x="750" y="165" width="60" height="39" as="geometry" />
        </mxCell>
        <mxCell id="3wRMklOLgalW1IvE9kGH-27" value="Email" style="ellipse;whiteSpace=wrap;html=1;fontStyle=4;align=center;strokeColor=default;" vertex="1" parent="1">
          <mxGeometry x="560" y="26" width="60" height="39" as="geometry" />
        </mxCell>
        <mxCell id="3wRMklOLgalW1IvE9kGH-28" value="Image" style="ellipse;whiteSpace=wrap;html=1;" vertex="1" parent="1">
          <mxGeometry x="470" y="116" width="60" height="39" as="geometry" />
        </mxCell>
        <mxCell id="3wRMklOLgalW1IvE9kGH-29" value="Description" style="ellipse;whiteSpace=wrap;html=1;" vertex="1" parent="1">
          <mxGeometry x="440" y="166" width="60" height="40" as="geometry" />
        </mxCell>
        <mxCell id="3wRMklOLgalW1IvE9kGH-30" value="&lt;u&gt;cid&lt;/u&gt;" style="ellipse;whiteSpace=wrap;html=1;" vertex="1" parent="1">
          <mxGeometry x="500" y="66" width="60" height="39" as="geometry" />
        </mxCell>
        <mxCell id="3wRMklOLgalW1IvE9kGH-31" value="" style="endArrow=none;html=1;rounded=0;exitX=1;exitY=0.5;exitDx=0;exitDy=0;" edge="1" parent="1" source="3wRMklOLgalW1IvE9kGH-29" target="3wRMklOLgalW1IvE9kGH-2">
          <mxGeometry width="50" height="50" relative="1" as="geometry">
            <mxPoint x="200" y="16" as="sourcePoint" />
            <mxPoint x="250" y="16" as="targetPoint" />
          </mxGeometry>
        </mxCell>
        <mxCell id="3wRMklOLgalW1IvE9kGH-32" value="" style="endArrow=none;html=1;rounded=0;exitX=1;exitY=0.5;exitDx=0;exitDy=0;entryX=0;entryY=0.5;entryDx=0;entryDy=0;" edge="1" parent="1" source="3wRMklOLgalW1IvE9kGH-2" target="3wRMklOLgalW1IvE9kGH-26">
          <mxGeometry width="50" height="50" relative="1" as="geometry">
            <mxPoint x="660" y="183" as="sourcePoint" />
            <mxPoint x="740" y="186" as="targetPoint" />
          </mxGeometry>
        </mxCell>
        <mxCell id="3wRMklOLgalW1IvE9kGH-33" value="" style="endArrow=none;html=1;rounded=0;exitX=1;exitY=0;exitDx=0;exitDy=0;entryX=0;entryY=0.5;entryDx=0;entryDy=0;" edge="1" parent="1" source="3wRMklOLgalW1IvE9kGH-2" target="3wRMklOLgalW1IvE9kGH-25">
          <mxGeometry width="50" height="50" relative="1" as="geometry">
            <mxPoint x="690" y="206" as="sourcePoint" />
            <mxPoint x="750" y="196" as="targetPoint" />
          </mxGeometry>
        </mxCell>
        <mxCell id="3wRMklOLgalW1IvE9kGH-34" value="" style="endArrow=none;html=1;rounded=0;exitX=0.853;exitY=-0.008;exitDx=0;exitDy=0;entryX=0;entryY=1;entryDx=0;entryDy=0;exitPerimeter=0;" edge="1" parent="1" source="3wRMklOLgalW1IvE9kGH-2" target="3wRMklOLgalW1IvE9kGH-24">
          <mxGeometry width="50" height="50" relative="1" as="geometry">
            <mxPoint x="690" y="186" as="sourcePoint" />
            <mxPoint x="710" y="136" as="targetPoint" />
          </mxGeometry>
        </mxCell>
        <mxCell id="3wRMklOLgalW1IvE9kGH-35" value="" style="endArrow=none;html=1;rounded=0;exitX=0.687;exitY=-0.029;exitDx=0;exitDy=0;entryX=0.5;entryY=1;entryDx=0;entryDy=0;exitPerimeter=0;" edge="1" parent="1" source="3wRMklOLgalW1IvE9kGH-2" target="3wRMklOLgalW1IvE9kGH-23">
          <mxGeometry width="50" height="50" relative="1" as="geometry">
            <mxPoint x="665" y="186" as="sourcePoint" />
            <mxPoint x="709" y="110" as="targetPoint" />
          </mxGeometry>
        </mxCell>
        <mxCell id="3wRMklOLgalW1IvE9kGH-37" value="" style="endArrow=none;html=1;rounded=0;exitX=0.5;exitY=0;exitDx=0;exitDy=0;entryX=0.603;entryY=1.075;entryDx=0;entryDy=0;entryPerimeter=0;" edge="1" parent="1" source="3wRMklOLgalW1IvE9kGH-2" target="3wRMklOLgalW1IvE9kGH-27">
          <mxGeometry width="50" height="50" relative="1" as="geometry">
            <mxPoint x="659" y="185" as="sourcePoint" />
            <mxPoint x="670" y="76" as="targetPoint" />
          </mxGeometry>
        </mxCell>
        <mxCell id="3wRMklOLgalW1IvE9kGH-38" value="" style="endArrow=none;html=1;rounded=0;entryX=1;entryY=1;entryDx=0;entryDy=0;" edge="1" parent="1" source="3wRMklOLgalW1IvE9kGH-2" target="3wRMklOLgalW1IvE9kGH-30">
          <mxGeometry width="50" height="50" relative="1" as="geometry">
            <mxPoint x="640" y="186" as="sourcePoint" />
            <mxPoint x="606" y="79" as="targetPoint" />
          </mxGeometry>
        </mxCell>
        <mxCell id="3wRMklOLgalW1IvE9kGH-39" value="" style="endArrow=none;html=1;rounded=0;entryX=1;entryY=0.5;entryDx=0;entryDy=0;exitX=0;exitY=0;exitDx=0;exitDy=0;" edge="1" parent="1" source="3wRMklOLgalW1IvE9kGH-2" target="3wRMklOLgalW1IvE9kGH-28">
          <mxGeometry width="50" height="50" relative="1" as="geometry">
            <mxPoint x="624" y="186" as="sourcePoint" />
            <mxPoint x="561" y="110" as="targetPoint" />
          </mxGeometry>
        </mxCell>
        <mxCell id="3wRMklOLgalW1IvE9kGH-40" value="Has" style="rhombus;whiteSpace=wrap;html=1;" vertex="1" parent="1">
          <mxGeometry x="380" y="290" width="80" height="80" as="geometry" />
        </mxCell>
        <mxCell id="3wRMklOLgalW1IvE9kGH-41" value="" style="endArrow=none;html=1;rounded=0;exitX=0.5;exitY=1;exitDx=0;exitDy=0;entryX=0;entryY=0.5;entryDx=0;entryDy=0;" edge="1" parent="1" source="3wRMklOLgalW1IvE9kGH-1" target="3wRMklOLgalW1IvE9kGH-40">
          <mxGeometry width="50" height="50" relative="1" as="geometry">
            <mxPoint x="480" y="220" as="sourcePoint" />
            <mxPoint x="530" y="170" as="targetPoint" />
          </mxGeometry>
        </mxCell>
        <mxCell id="3wRMklOLgalW1IvE9kGH-42" value="" style="endArrow=none;html=1;rounded=0;exitX=0.5;exitY=1;exitDx=0;exitDy=0;entryX=1;entryY=0.5;entryDx=0;entryDy=0;" edge="1" parent="1" source="3wRMklOLgalW1IvE9kGH-2" target="3wRMklOLgalW1IvE9kGH-40">
          <mxGeometry width="50" height="50" relative="1" as="geometry">
            <mxPoint x="215" y="215" as="sourcePoint" />
            <mxPoint x="390" y="340" as="targetPoint" />
          </mxGeometry>
        </mxCell>
        <mxCell id="3wRMklOLgalW1IvE9kGH-43" value="One(1)" style="text;html=1;align=center;verticalAlign=middle;whiteSpace=wrap;rounded=0;" vertex="1" parent="1">
          <mxGeometry x="230" y="270" width="60" height="30" as="geometry" />
        </mxCell>
        <mxCell id="3wRMklOLgalW1IvE9kGH-44" value="Many(n)" style="text;html=1;align=center;verticalAlign=middle;whiteSpace=wrap;rounded=0;" vertex="1" parent="1">
          <mxGeometry x="550" y="270" width="60" height="30" as="geometry" />
        </mxCell>
      </root>
    </mxGraphModel>
  </diagram>
</mxfile>
